<?xml version="1.0" encoding="UTF-8" standalone="no"?>
<!-- Created with Inkscape (http://www.inkscape.org/) -->
<svg
   xmlns:dc="http://purl.org/dc/elements/1.1/"
   xmlns:cc="http://creativecommons.org/ns#"
   xmlns:rdf="http://www.w3.org/1999/02/22-rdf-syntax-ns#"
   xmlns:svg="http://www.w3.org/2000/svg"
   xmlns="http://www.w3.org/2000/svg"
   xmlns:xlink="http://www.w3.org/1999/xlink"
   xmlns:sodipodi="http://sodipodi.sourceforge.net/DTD/sodipodi-0.dtd"
   xmlns:inkscape="http://www.inkscape.org/namespaces/inkscape"
   width="16px"
   height="16px"
   id="svg2383"
   sodipodi:version="0.32"
   inkscape:version="0.46"
   sodipodi:docname="icon_xmp_dc_rights.svg"
   inkscape:output_extension="org.inkscape.output.svg.inkscape"
   inkscape:export-xdpi="90"
   inkscape:export-ydpi="90"
   inkscape:export-filename="/home/elmar/projekte/JPhotoTagger/Program/src/de/elmar_baumann/jpt/resource/icons/icon_xmp_dc_rights.png">
  <defs
     id="defs2385">
    <linearGradient
       id="linearGradient4053">
      <stop
         style="stop-color:#0000ff;stop-opacity:0.41666667"
         offset="0"
         id="stop4055" />
      <stop
         style="stop-color:#0000ff;stop-opacity:0;"
         offset="1"
         id="stop4057" />
    </linearGradient>
    <linearGradient
       id="linearGradient3167">
      <stop
         style="stop-color:#ff0000;stop-opacity:1;"
         offset="0"
         id="stop3169" />
      <stop
         style="stop-color:#000000;stop-opacity:0;"
         offset="1"
         id="stop3171" />
    </linearGradient>
    <inkscape:perspective
       sodipodi:type="inkscape:persp3d"
       inkscape:vp_x="0 : 8 : 1"
       inkscape:vp_y="0 : 1000 : 0"
       inkscape:vp_z="16 : 8 : 1"
       inkscape:persp3d-origin="8 : 5.3333333 : 1"
       id="perspective2391" />
    <linearGradient
       inkscape:collect="always"
       xlink:href="#linearGradient3167"
       id="linearGradient3173"
       x1="13.693563"
       y1="12.234653"
       x2="-2.1292348"
       y2="2"
       gradientUnits="userSpaceOnUse"
       gradientTransform="translate(-0.9460396,0)" />
  </defs>
  <sodipodi:namedview
     id="base"
     pagecolor="#ffffff"
     bordercolor="#666666"
     borderopacity="1.0"
     inkscape:pageopacity="0.0"
     inkscape:pageshadow="2"
     inkscape:zoom="28.875"
     inkscape:cx="8"
     inkscape:cy="8"
     inkscape:current-layer="layer3"
     showgrid="true"
     inkscape:grid-bbox="true"
     inkscape:document-units="px"
     inkscape:window-width="992"
     inkscape:window-height="675"
     inkscape:window-x="220"
     inkscape:window-y="230">
    <inkscape:grid
       type="xygrid"
       id="grid2393" />
  </sodipodi:namedview>
  <metadata
     id="metadata2388">
    <rdf:RDF>
      <cc:Work
         rdf:about="">
        <dc:format>image/svg+xml</dc:format>
        <dc:type
           rdf:resource="http://purl.org/dc/dcmitype/StillImage" />
        <dc:creator>
          <cc:Agent>
            <dc:title>Elmar Baumann &lt;eb@elmar-baumann.de&gt;</dc:title>
          </cc:Agent>
        </dc:creator>
        <dc:source>http://www.elmar-baumann.de/JPhotoTagger/</dc:source>
        <cc:license
           rdf:resource="http://elmar-baumann.de/fotografie/copyright.html" />
        <dc:rights>
          <cc:Agent>
            <dc:title>Elmar Baumann &lt;eb@elmar-baumann.de&gt;</dc:title>
          </cc:Agent>
        </dc:rights>
        <dc:publisher>
          <cc:Agent>
            <dc:title>Elmar Baumann &lt;eb@elmar-baumann.de&gt;</dc:title>
          </cc:Agent>
        </dc:publisher>
        <dc:identifier>de.elmar_baumann.jpt.resource.icons.icon_xmp_dc_rights.svg</dc:identifier>
        <dc:title>XMP Dublin Core Rights</dc:title>
        <dc:coverage>computer program, icon</dc:coverage>
        <dc:subject>
          <rdf:Bag>
            <rdf:li>icon</rdf:li>
            <rdf:li>copyright</rdf:li>
          </rdf:Bag>
        </dc:subject>
        <dc:date>2009-08-03</dc:date>
      </cc:Work>
    </rdf:RDF>
  </metadata>
  <g
     inkscape:groupmode="layer"
     id="layer3"
     inkscape:label="Circle">
    <text
       xml:space="preserve"
       style="font-size:10;font-style:normal;font-variant:normal;font-weight:normal;font-stretch:normal;text-indent:0;text-align:start;text-decoration:none;line-height:normal;letter-spacing:normal;word-spacing:normal;text-transform:none;direction:ltr;block-progression:tb;writing-mode:lr-tb;text-anchor:start;opacity:0.96999996000000011;fill:#00ff00;fill-opacity:1;fill-rule:nonzero;stroke:#ffffff;stroke-width:0;stroke-linecap:square;stroke-linejoin:miter;marker:none;marker-start:none;marker-mid:none;marker-end:none;stroke-miterlimit:0;stroke-dasharray:none;stroke-dashoffset:0;stroke-opacity:0.94117647000000004;visibility:visible;display:inline;overflow:visible;enable-background:accumulate;font-family:Webdings;-inkscape-font-specification:Webdings"
       x="5.8528137"
       y="9.7316017"
       id="text2392"><tspan
         sodipodi:role="line"
         id="tspan2394"
         x="5.8528137"
         y="9.7316017" /></text>
    <path
       style="font-size:16px;font-style:normal;font-variant:normal;font-weight:normal;font-stretch:normal;text-indent:0;text-align:start;text-decoration:none;line-height:normal;letter-spacing:normal;word-spacing:normal;text-transform:none;direction:ltr;block-progression:tb;writing-mode:lr-tb;text-anchor:start;opacity:0.96999996;fill:#0000ff;fill-opacity:1;fill-rule:nonzero;stroke:#ffffff;stroke-width:0;stroke-linecap:square;stroke-linejoin:miter;stroke-miterlimit:0;stroke-dashoffset:0;stroke-opacity:0.94117647;marker:none;marker-start:none;marker-mid:none;marker-end:none;visibility:visible;display:inline;overflow:visible;enable-background:accumulate;font-family:Nimbus Sans L;-inkscape-font-specification:Nimbus Sans L"
       d="M 7.937875,2.0475626 C 8.9274515,2.0475742 9.8935963,2.3027823 10.836313,2.8131876 C 11.779011,3.3184063 12.513385,4.0449681 13.039438,4.9928751 C 13.565468,5.9355912 13.828488,6.9199652 13.8285,7.9460001 C 13.828488,8.9616298 13.568072,9.9381914 13.04725,10.875688 C 12.531615,11.813189 11.805053,12.542355 10.867563,13.063188 C 9.9352629,13.578813 8.9587014,13.836625 7.937875,13.836625 C 6.9170368,13.836625 5.9378711,13.578813 5.000375,13.063188 C 4.0680813,12.542355 3.3415195,11.813189 2.8206875,10.875688 C 2.2998539,9.9381914 2.0394375,8.9616298 2.0394375,7.9460001 C 2.0394375,6.9199652 2.3024581,5.9355912 2.8285,4.9928751 C 3.3597487,4.0449681 4.0967271,3.3184063 5.0394375,2.8131876 C 5.9821419,2.3027823 6.9482868,2.0475742 7.937875,2.0475626 M 7.937875,3.0241251 C 7.1097449,3.0241358 6.3024541,3.2376772 5.516,3.6647501 C 4.7347473,4.0866347 4.1227688,4.6934049 3.6800625,5.4850626 C 3.237353,6.2715284 3.015999,7.09184 3.016,7.9460001 C 3.015999,8.7949633 3.2321446,9.6100667 3.6644375,10.391313 C 4.1019354,11.167357 4.7113098,11.774127 5.4925625,12.211625 C 6.2738083,12.643918 7.0889116,12.860063 7.937875,12.860063 C 8.7868266,12.860063 9.6019299,12.643918 10.383188,12.211625 C 11.164428,11.774127 11.771199,11.167357 12.2035,10.391313 C 12.635781,9.6100667 12.851927,8.7949633 12.851938,7.9460001 C 12.851927,7.09184 12.630573,6.2715284 12.187875,5.4850626 C 11.750365,4.6934049 11.138387,4.0866347 10.351938,3.6647501 C 9.5654716,3.2376772 8.760785,3.0241358 7.937875,3.0241251 M 9.8285,8.8991251 L 10.789438,9.1803751 C 10.633179,9.8314206 10.299846,10.352253 9.7894375,10.742875 C 9.2842219,11.128294 8.6696392,11.321002 7.9456875,11.321 C 7.0290159,11.321002 6.2842249,11.024128 5.7113125,10.430375 C 5.1383927,9.836629 4.8519347,9.0137131 4.8519375,7.9616251 C 4.8519347,7.2741315 4.9821429,6.677778 5.2425625,6.1725626 C 5.5029757,5.662154 5.872767,5.2793418 6.3519375,5.0241251 C 6.8363077,4.7637174 7.3883905,4.6335092 8.0081875,4.6335001 C 8.7008892,4.6335092 9.2764094,4.8001757 9.73475,5.1335001 C 10.193075,5.4616333 10.505575,5.9095496 10.67225,6.4772501 L 9.7425625,6.7038126 C 9.586305,6.3184033 9.3545344,6.0241328 9.04725,5.8210001 C 8.74516,5.6126748 8.3883895,5.5085083 7.9769375,5.5085001 C 7.3779738,5.5085083 6.8831827,5.7220497 6.4925625,6.1491251 C 6.1071418,6.5762156 5.9144336,7.1881941 5.9144375,7.9850626 C 5.9144336,8.7819425 6.0967251,9.3861086 6.4613125,9.7975626 C 6.8310994,10.203816 7.3076614,10.406941 7.891,10.406938 C 8.3597437,10.406941 8.7712016,10.271524 9.125375,10.000688 C 9.4795342,9.7298582 9.713909,9.3626711 9.8285,8.8991251"
       id="text2396" />
  </g>
  <g
     inkscape:groupmode="layer"
     id="layer4"
     inkscape:label="C" />
</svg>
