<?xml version="1.0" encoding="UTF-8" standalone="no"?>
<!-- Created with Inkscape (http://www.inkscape.org/) -->
<svg
   xmlns:dc="http://purl.org/dc/elements/1.1/"
   xmlns:cc="http://creativecommons.org/ns#"
   xmlns:rdf="http://www.w3.org/1999/02/22-rdf-syntax-ns#"
   xmlns:svg="http://www.w3.org/2000/svg"
   xmlns="http://www.w3.org/2000/svg"
   xmlns:xlink="http://www.w3.org/1999/xlink"
   xmlns:sodipodi="http://sodipodi.sourceforge.net/DTD/sodipodi-0.dtd"
   xmlns:inkscape="http://www.inkscape.org/namespaces/inkscape"
   width="16px"
   height="16px"
   id="svg2383"
   sodipodi:version="0.32"
   inkscape:version="0.46"
   sodipodi:docname="icon_exif_iso_speed_ratings.svg"
   inkscape:output_extension="org.inkscape.output.svg.inkscape"
   inkscape:export-xdpi="90"
   inkscape:export-ydpi="90"
  <defs
     id="defs2385">
    <linearGradient
       id="linearGradient4112">
      <stop
         style="stop-color:#e61419;stop-opacity:1;"
         offset="0"
         id="stop4114" />
      <stop
         style="stop-color:#e61419;stop-opacity:0.40000001;"
         offset="1"
         id="stop4116" />
    </linearGradient>
    <linearGradient
       id="linearGradient4104">
      <stop
         style="stop-color:#999999;stop-opacity:1;"
         offset="0"
         id="stop4106" />
      <stop
         style="stop-color:#bbbbbb;stop-opacity:0.40000001;"
         offset="1"
         id="stop4108" />
    </linearGradient>
    <linearGradient
       id="linearGradient4053">
      <stop
         style="stop-color:#0000ff;stop-opacity:0.41666667"
         offset="0"
         id="stop4055" />
      <stop
         style="stop-color:#0000ff;stop-opacity:0;"
         offset="1"
         id="stop4057" />
    </linearGradient>
    <linearGradient
       id="linearGradient3167">
      <stop
         style="stop-color:#ff0000;stop-opacity:1;"
         offset="0"
         id="stop3169" />
      <stop
         style="stop-color:#000000;stop-opacity:0;"
         offset="1"
         id="stop3171" />
    </linearGradient>
    <inkscape:perspective
       sodipodi:type="inkscape:persp3d"
       inkscape:vp_x="0 : 8 : 1"
       inkscape:vp_y="0 : 1000 : 0"
       inkscape:vp_z="16 : 8 : 1"
       inkscape:persp3d-origin="8 : 5.3333333 : 1"
       id="perspective2391" />
    <linearGradient
       inkscape:collect="always"
       xlink:href="#linearGradient3167"
       id="linearGradient3173"
       x1="13.693563"
       y1="12.234653"
       x2="-2.1292348"
       y2="2"
       gradientUnits="userSpaceOnUse"
       gradientTransform="translate(-0.9460396,0)" />
    <linearGradient
       inkscape:collect="always"
       xlink:href="#linearGradient4104"
       id="linearGradient4110"
       x1="2"
       y1="8"
       x2="14.069264"
       y2="15"
       gradientUnits="userSpaceOnUse" />
    <linearGradient
       inkscape:collect="always"
       xlink:href="#linearGradient4112"
       id="linearGradient4118"
       x1="2"
       y1="1"
       x2="14"
       y2="8"
       gradientUnits="userSpaceOnUse" />
    <clipPath
       id="clipPath25"
       clipPathUnits="userSpaceOnUse">
      <path
         id="path27"
         d="M -169.91499,-113.755 L -169.91499,83.51878 L 102.97067,83.51878 L 102.97067,-113.755 L -169.91499,-113.755 z" />
    </clipPath>
    <clipPath
       id="clipPath17"
       clipPathUnits="userSpaceOnUse">
      <path
         id="path19"
         d="M 0,0 L 595.27559,0 L 595.27559,841.88977 L 0,841.88977 L 0,0 z" />
    </clipPath>
    <inkscape:perspective
       id="perspective9"
       inkscape:persp3d-origin="372.04724 : 350.78739 : 1"
       inkscape:vp_z="744.09448 : 526.18109 : 1"
       inkscape:vp_y="0 : 1000 : 0"
       inkscape:vp_x="0 : 526.18109 : 1"
       sodipodi:type="inkscape:persp3d" />
  </defs>
  <sodipodi:namedview
     id="base"
     pagecolor="#ffffff"
     bordercolor="#666666"
     borderopacity="1.0"
     inkscape:pageopacity="0.0"
     inkscape:pageshadow="2"
     inkscape:zoom="28.875"
     inkscape:cx="0.086580087"
     inkscape:cy="7.9410227"
     inkscape:current-layer="layer3"
     showgrid="true"
     inkscape:grid-bbox="true"
     inkscape:document-units="px"
     inkscape:window-width="992"
     inkscape:window-height="675"
     inkscape:window-x="220"
     inkscape:window-y="230">
    <inkscape:grid
       type="xygrid"
       id="grid2393" />
  </sodipodi:namedview>
  <metadata
     id="metadata2388">
    <rdf:RDF>
      <cc:Work
         rdf:about="">
        <dc:format>image/svg+xml</dc:format>
        <dc:type
           rdf:resource="http://purl.org/dc/dcmitype/StillImage" />
        <dc:creator>
          <cc:Agent>
            <dc:title></dc:title>
          </cc:Agent>
        </dc:creator>
        <dc:source></dc:source>
        <cc:license
           rdf:resource="" />
        <dc:rights>
          <cc:Agent>
            <dc:title></dc:title>
          </cc:Agent>
        </dc:rights>
        <dc:publisher>
          <cc:Agent>
            <dc:title></dc:title>
          </cc:Agent>
        </dc:publisher>
        <dc:identifier>de.elmar_baumann.jpt.resource.icons.icon_xmp_dc_rights.svg</dc:identifier>
        <dc:title>XMP EXIF ISO Speed Ratings</dc:title>
        <dc:coverage>computer program, icon</dc:coverage>
        <dc:subject>
          <rdf:Bag>
            <rdf:li>icon</rdf:li>
          </rdf:Bag>
        </dc:subject>
        <dc:date>2009-08-03</dc:date>
      </cc:Work>
    </rdf:RDF>
  </metadata>
  <g
     inkscape:groupmode="layer"
     id="layer3"
     inkscape:label="ISO">
    <path
       id="path45"
       style="fill:#2a3e92;fill-opacity:1;fill-rule:nonzero;stroke:none"
       d="M 12.986547,6.9668237 C 13.094167,7.1318298 13.087023,7.3470739 13.108533,7.540814 C 13.101313,7.9497622 13.137187,8.4376385 13.065437,8.8538387 C 13.029567,9.0259967 12.914797,9.2053728 12.735427,9.2699689 C 12.448433,9.3991069 12.060949,9.3632269 11.795539,9.2125828 C 11.573075,9.0547228 11.544419,8.7892386 11.515689,8.5381125 C 11.494179,8.0430183 11.458305,7.519268 11.594585,7.0672678 C 11.702209,6.7874496 11.996423,6.7157036 12.261909,6.6941576 C 12.541687,6.6941576 12.814317,6.7372136 12.986547,6.9668237 z" />
    <path
       id="path47"
       style="fill:#2a3e92;fill-opacity:1;fill-rule:nonzero;stroke:none"
       d="M -1.146839e-06,15.35426 L -1.146839e-06,0.64574055 L 16.000001,0.64574055 L 16.000001,15.35426 L -1.146839e-06,15.35426 z M 8.4376391,2.4035894 C 8.243971,2.3820754 8.0071809,2.3748954 7.7991148,2.3964054 C 7.7201847,2.3892254 7.6268847,2.3964054 7.5336306,2.4035894 C 5.8116598,2.5399055 4.226001,3.436766 3.2358765,4.9650347 C 3.3076265,4.9578587 3.3937066,4.9865447 3.4654526,4.9578587 C 3.6376827,4.7139146 3.8313808,4.4771245 4.0466309,4.2475504 C 4.233181,4.0681803 4.4053711,3.8959502 4.6062872,3.7668201 C 4.7928072,3.8888042 5.0009074,3.9892442 5.1802774,4.1040503 C 4.9578513,4.3838684 4.7282412,4.6636746 4.5632351,4.9650347 C 4.6134312,4.9865447 4.7067312,4.9793687 4.7784812,4.9650347 C 4.9578513,4.6995506 5.1515554,4.4340644 5.3811655,4.1973103 C 5.6896717,4.3121104 5.9910298,4.4340644 6.306716,4.5201805 C 6.306716,4.5201805 6.33541,4.5488745 6.33541,4.5488745 C 6.33541,4.5488745 6.1560399,4.9650347 6.1560399,4.9650347 C 6.234966,4.9793687 6.285206,4.9721807 6.36414,4.9650347 C 6.4287021,4.8430487 6.4789061,4.7067386 6.5506561,4.5847485 C 6.9668163,4.6780406 7.4044946,4.7282486 7.8493208,4.7426086 C 7.9067348,4.7928106 7.8636848,4.9004347 7.8851948,4.9650347 C 7.8851948,4.9650347 8.0789289,4.9650347 8.0789289,4.9650347 C 8.1004389,4.8932887 8.0717449,4.8143586 8.1004389,4.7497906 C 8.5166011,4.7282486 8.9542453,4.6851846 9.3560835,4.5847485 C 9.3560835,4.5847485 9.3919595,4.5919285 9.3919595,4.5919285 C 9.3919595,4.5919285 9.5856196,4.9650347 9.5856196,4.9650347 C 9.6502237,4.9650347 9.7363337,4.9793687 9.7865737,4.9506707 C 9.7865737,4.9506707 9.6072037,4.5345445 9.6072037,4.5345445 C 9.6072037,4.5345445 9.6214937,4.5201805 9.6214937,4.5201805 C 9.9515838,4.4340644 10.260088,4.3049344 10.57581,4.1758003 C 10.798204,4.4125544 11.006304,4.6923746 11.192818,4.9650347 C 11.271714,4.9650347 11.350685,4.9721807 11.408069,4.9506707 C 11.321955,4.7928106 11.214328,4.6349885 11.099564,4.4986705 C 11.006304,4.3623204 10.905824,4.2403644 10.783838,4.1111943 C 10.783838,4.1111943 10.783838,4.0753243 10.783838,4.0753243 L 11.286078,3.7811841 C 11.286078,3.7811841 11.357829,3.7524541 11.357829,3.7524541 C 11.795539,4.0896843 12.182947,4.4986705 12.491449,4.9506707 C 12.577563,4.9506707 12.649313,4.9793687 12.721063,4.9434947 C 11.759665,3.479824 10.173974,2.5399055 8.4592151,2.4035894 C 8.4592151,2.4035894 8.4520051,2.4179514 8.4520051,2.4179514 C 8.4520051,2.4179514 8.4376391,2.4035894 8.4376391,2.4035894 z M 9.1767094,2.7264596 C 9.1767094,2.7264596 9.1767094,2.7408196 9.1767094,2.7408196 C 8.5524751,3.2000058 7.5408146,3.2430659 6.8807103,2.8197196 C 6.8448343,2.7910256 6.7730802,2.7766956 6.7659002,2.7264596 C 7.5264506,2.5470895 8.4233451,2.5327255 9.1767094,2.7264596 z M 11.149798,3.60181 C 11.149798,3.60181 11.135438,3.6305 11.135438,3.6305 L 10.64034,3.9103142 C 10.64034,3.9103142 10.604468,3.9103142 10.604468,3.9103142 C 10.224214,3.522876 9.7793537,3.1856398 9.3273535,2.9201997 C 9.3417195,2.8699597 9.4134696,2.8340856 9.4637036,2.7982096 C 10.06635,2.9560697 10.633194,3.2286998 11.149798,3.60181 z M 6.6295862,2.9201997 C 6.1847659,3.2000058 5.7470917,3.53006 5.3452915,3.9318242 C 5.1515554,3.8600742 4.9721853,3.7524541 4.7999913,3.6305 C 4.7999913,3.6305 4.7999913,3.616136 4.7999913,3.616136 C 5.2520275,3.2789399 5.7542757,3.0278197 6.285206,2.8555957 C 6.306716,2.8340856 6.32108,2.8125756 6.349776,2.8125756 C 6.349776,2.8125756 6.349776,2.8268996 6.349776,2.8268996 C 6.4071601,2.8412657 6.4502121,2.7766956 6.5004501,2.8197196 C 6.5435101,2.8555957 6.5937102,2.8843237 6.6295862,2.9201997 z M 10.396438,4.0035742 C 10.396438,4.0035742 10.382074,4.0251162 10.382074,4.0251162 C 10.102224,4.1470703 9.8152298,4.2618784 9.5067236,4.3264444 C 9.2843335,3.9461902 9.0403594,3.565934 8.7677212,3.2000058 C 8.8681333,3.1425898 8.9901193,3.0995698 9.0977434,3.0421458 C 9.5641096,3.2789399 10.016114,3.616136 10.396438,4.0035742 z M 7.1677044,3.1856398 C 7.1677044,3.1856398 7.1461904,3.2430659 7.1461904,3.2430659 C 6.8735263,3.587444 6.6582802,3.9605542 6.4430361,4.3264444 C 6.4430361,4.3264444 6.4143361,4.3336284 6.4143361,4.3336284 C 6.1201659,4.2546944 5.8331698,4.1614343 5.5605396,4.0394503 C 5.5605396,4.0394503 5.5748956,3.9964302 5.5748956,3.9964302 C 5.9695198,3.616136 6.38565,3.3004499 6.8448343,3.0565098 C 6.9524603,3.0995698 7.0600844,3.1354438 7.1677044,3.1856398 z M 7.8636848,3.3219599 C 7.8851948,3.6950701 7.8708608,4.1255603 7.8708608,4.5201805 C 7.6699487,4.5488745 7.4905746,4.5129985 7.2896945,4.4986705 C 7.0959604,4.4699405 6.8520163,4.4484305 6.6582802,4.3838684 C 6.8663803,3.9892442 7.1103164,3.608954 7.4044946,3.2573899 C 7.4044946,3.2573899 7.8636848,3.3219599 7.8636848,3.3219599 z M 8.5381111,3.2645759 C 8.8179593,3.62332 9.0905894,3.9892442 9.2771135,4.3838684 C 8.8897093,4.4771245 8.4950911,4.5273645 8.0932549,4.5273645 C 8.0789289,4.1470703 8.0861109,3.7237601 8.0932549,3.3291399 C 8.236751,3.3076299 8.3946151,3.2860859 8.5381111,3.2645759 z M 7.9569448,5.7040351 C 7.1677044,5.3667989 6.0627799,5.3309249 5.3452915,5.8547192 C 4.8789173,6.1990933 4.7354212,6.8161436 4.8574073,7.3614379 C 4.9506673,7.8780122 5.4385516,8.2582684 5.9049158,8.4376385 C 6.5435101,8.6672486 7.2107605,8.8322626 7.8565008,9.0547228 C 7.9210688,9.0833828 8.0071809,9.1479788 7.9928148,9.2268828 C 7.9928148,9.2914789 7.9282448,9.3273529 7.8780108,9.3560789 C 7.2035805,9.542603 6.4717601,9.3991069 5.9838458,8.8824927 C 5.9264618,8.8107486 5.8905858,8.7246366 5.8331698,8.6528926 C 5.8331698,8.6528926 4.8645613,8.6601026 4.8645613,8.6601026 C 4.8502313,9.2412469 4.8430473,9.9084932 4.8645613,10.482481 C 4.8645613,10.482481 5.9407898,10.475337 5.9407898,10.475337 C 5.9407898,10.475337 5.9551558,10.130957 5.9551558,10.130957 C 6.0771459,10.188341 6.199092,10.260091 6.32108,10.324697 C 7.0672604,10.640348 8.0286909,10.712092 8.7677212,10.324697 C 9.3058435,10.023337 9.5928396,9.442127 9.5138696,8.8179626 C 9.4349796,8.2081023 8.8609893,7.6556181 8.279845,7.504938 C 8.279845,7.504938 6.5435101,6.9955177 6.5435101,6.9955177 C 6.5435101,6.9955177 6.4143361,6.9309477 6.4143361,6.9309477 C 6.356956,6.8807097 6.32108,6.8161436 6.33541,6.7372136 C 6.4717601,6.5004535 6.7874462,6.5722035 7.0242104,6.5793895 C 7.5264506,6.6511376 8.0430549,6.8233236 8.337231,7.2896939 C 8.6528852,7.2896939 9.0188414,7.2968779 9.3632295,7.2825139 C 9.3775935,6.6941576 9.3560835,6.1775833 9.3488635,5.582053 C 9.0259934,5.574899 8.6313752,5.574899 8.308501,5.589233 C 8.294145,5.6753451 8.322865,5.7972991 8.286991,5.8834052 C 8.286991,5.8834052 7.9569448,5.7040351 7.9569448,5.7040351 z M 14.041268,5.9336452 C 13.108533,5.3309249 11.687919,5.2879049 10.726454,5.8331731 C 10.202704,6.1058393 9.8583238,6.6439536 9.7506997,7.1963978 C 9.5569636,8.1076223 9.6072037,9.1910068 10.295964,9.8726172 C 11.099564,10.590108 12.269057,10.747968 13.309418,10.453827 C 13.358744,10.443947 13.515694,10.403587 13.623314,10.345291 C 13.623314,10.345291 13.653794,10.331841 13.653794,10.331841 C 13.976662,10.195487 14.285168,9.9730972 14.514778,9.6717371 C 15.045748,8.8824927 15.081622,7.6986381 14.758752,6.8089596 C 14.629622,6.4645795 14.364138,6.1560433 14.041268,5.9336452 z M 1.8511078,5.503149 C 1.8511078,5.503149 1.4062836,5.510303 1.4062836,5.510303 C 1.3990976,5.8905892 1.3990976,6.3354134 1.4062836,6.7228876 C 1.6502177,6.7300336 1.8798278,6.7228876 2.1165919,6.7443976 C 2.1165919,6.7443976 2.1165919,9.1838528 2.1165919,9.1838528 L 2.1094079,9.2843329 C 2.1094079,9.2843329 1.3990976,9.2986269 1.3990976,9.2986269 C 1.3847415,9.7004591 1.3847415,10.087867 1.3990976,10.482481 C 1.3990976,10.482481 4.5632351,10.482481 4.5632351,10.482481 C 4.5632351,10.482481 4.5632351,9.2986269 4.5632351,9.2986269 C 4.326437,9.2843329 4.0609969,9.3058429 3.8313808,9.2771169 C 3.8313808,9.2771169 3.8385628,6.7587636 3.8385628,6.7587636 L 3.8529268,6.7372136 C 3.8529268,6.7372136 4.5632351,6.7300336 4.5632351,6.7300336 C 4.5704111,6.3210834 4.5775611,5.8834052 4.5560511,5.510303 C 4.5560511,5.510303 1.8511078,5.503149 1.8511078,5.503149 z M 6.4000161,11.013452 C 6.328266,11.013452 6.24933,10.999088 6.199092,11.020598 C 6.199092,11.020598 6.378462,11.443946 6.378462,11.443946 C 6.378462,11.443946 6.356956,11.465456 6.356956,11.465456 C 6.0340859,11.558786 5.7183997,11.673556 5.4098556,11.802692 C 5.4098556,11.802692 5.3811655,11.788326 5.3811655,11.788326 C 5.1802774,11.565932 4.9865413,11.321958 4.8286813,11.078058 C 4.7928072,10.956068 4.6493072,11.027818 4.5704111,11.013452 C 4.7426072,11.329102 4.9721853,11.608952 5.2017875,11.895946 C 5.0080614,12.01072 4.8143553,12.139922 4.6134312,12.233182 C 4.1829409,11.9031 3.7811767,11.472602 3.4798166,11.020598 C 3.3937066,11.006308 3.3363225,11.013452 3.2502065,11.020598 C 3.7668127,11.838562 4.5704111,12.556053 5.4098556,12.979331 C 5.4098556,12.979331 5.4098556,12.972185 5.4170416,12.972185 C 5.4242216,12.972185 5.4385516,12.986551 5.4242216,12.993761 C 5.9910298,13.273545 6.5937102,13.474425 7.2322705,13.560541 C 9.4349796,13.854747 11.537199,12.900437 12.756937,11.020598 C 12.692407,11.013452 12.599073,11.013452 12.527323,11.020598 C 12.226033,11.458312 11.845705,11.881656 11.429579,12.211672 C 11.415215,12.233182 11.372195,12.22597 11.357829,12.204526 C 11.178458,12.089686 10.984718,11.996426 10.812568,11.881656 C 11.042178,11.601806 11.264568,11.321958 11.436795,11.013452 C 11.436795,11.013452 11.214328,11.013452 11.214328,11.013452 C 11.034958,11.278938 10.848444,11.558786 10.611684,11.795476 C 10.295964,11.666412 10.008968,11.551568 9.6860997,11.465456 C 9.6860997,11.465456 9.6502237,11.436726 9.6502237,11.436726 C 9.7004637,11.293228 9.7937198,11.156952 9.8224498,11.013452 C 9.8224498,11.013452 9.6287137,11.013452 9.6287137,11.013452 C 9.6287137,11.013452 9.4349796,11.400852 9.4349796,11.400852 C 9.0116294,11.307666 8.5452651,11.257356 8.1148049,11.228702 C 8.0932549,11.164096 8.1219849,11.070838 8.0932549,11.013452 C 8.0932549,11.013452 7.9067348,11.013452 7.9067348,11.013452 C 7.8923708,11.099566 7.9282448,11.164096 7.8851948,11.235918 C 7.4403706,11.257356 7.0098764,11.307666 6.5937102,11.393706 C 6.5937102,11.393706 6.4000161,11.013452 6.4000161,11.013452 z M 7.9067348,12.663677 C 7.7560607,12.699547 7.5910146,12.699547 7.4475146,12.735423 C 7.1533744,12.383896 6.9094003,12.003572 6.7013302,11.608952 C 6.7013302,11.608952 6.7372062,11.580222 6.7372062,11.580222 C 7.1103164,11.508476 7.4977546,11.451166 7.8995588,11.451166 C 7.8995588,11.451166 7.9067348,12.663677 7.9067348,12.663677 z M 9.3202095,11.594662 C 9.3202095,11.594662 9.3273535,11.616096 9.3273535,11.616096 C 9.1264654,12.003572 8.8753453,12.37668 8.6027152,12.728211 C 8.4807251,12.742641 8.365889,12.692337 8.243971,12.685191 C 8.243971,12.685191 8.1219849,12.670893 8.1219849,12.670893 C 8.1076209,12.247546 8.1004389,11.874436 8.1219849,11.451166 C 8.5309651,11.458312 8.9398793,11.501332 9.3202095,11.594662 z M 6.4860861,11.659192 C 6.6941562,12.053812 6.9524603,12.426916 7.2107605,12.799961 C 7.1103164,12.857411 6.9883343,12.893287 6.8878903,12.950675 C 6.4143361,12.713913 5.9623358,12.383896 5.5820496,11.989282 C 5.5820496,11.989282 5.5820496,11.967696 5.5820496,11.967696 C 5.8618998,11.83135 6.1560399,11.730942 6.4573961,11.651972 C 6.4573961,11.651972 6.4860861,11.659192 6.4860861,11.659192 z M 10.432314,11.960552 C 10.202704,12.22597 9.9084898,12.455646 9.6358597,12.649317 C 9.4708496,12.749787 9.3058435,12.857411 9.1336194,12.943457 C 9.1336194,12.943457 8.8251133,12.807171 8.8251133,12.807171 C 8.8251133,12.807171 8.8466233,12.756941 8.8466233,12.756941 C 9.1049634,12.40534 9.3344995,12.046596 9.5354536,11.666412 C 9.5354536,11.666412 9.5569636,11.651972 9.5569636,11.651972 C 9.8654698,11.723726 10.15961,11.824202 10.432314,11.960552 z M 11.199964,12.369466 C 10.798204,12.692337 10.331834,12.907581 9.8583238,13.086955 C 9.8583238,13.086955 9.5210896,13.194577 9.5210896,13.194577 C 9.4637036,13.165921 9.4134696,13.122831 9.3632295,13.079811 C 9.3632295,13.079811 9.3775935,13.058301 9.3775935,13.058301 C 9.8367398,12.785661 10.252944,12.455646 10.647558,12.061032 C 10.841224,12.139922 11.027814,12.247546 11.199964,12.369466 z M 6.6511362,13.079811 C 6.6152602,13.122831 6.5578361,13.165921 6.5076361,13.194577 C 5.9049158,13.036781 5.3452915,12.764087 4.8286813,12.391042 C 4.8286813,12.391042 4.8286813,12.369466 4.8286813,12.369466 C 5.0009074,12.261846 5.1731014,12.147066 5.3596515,12.068176 C 5.7686017,12.47709 6.1919099,12.785661 6.6511362,13.079811 z M 9.2197295,13.244881 C 9.2412395,13.287911 9.1838554,13.273545 9.1694934,13.287911 C 8.4089791,13.452915 7.5623246,13.460131 6.8017763,13.273545 C 6.7874462,13.237671 6.8376503,13.230451 6.8591963,13.209011 C 7.5264506,12.771297 8.5668411,12.771297 9.2197295,13.244881 z" />
    <rect
       style="fill:none;fill-opacity:0.98717945;stroke:none;stroke-width:0.63436121;stroke-miterlimit:4;stroke-dasharray:none;stroke-opacity:1"
       id="rect2386"
       width="14.273135"
       height="14.273135"
       x="0.86343324"
       y="0.86343104" />
  </g>
</svg>
