<?xml version="1.0" encoding="UTF-8" standalone="no"?>
<!-- Created with Inkscape (http://www.inkscape.org/) -->
<svg
   xmlns:dc="http://purl.org/dc/elements/1.1/"
   xmlns:cc="http://creativecommons.org/ns#"
   xmlns:rdf="http://www.w3.org/1999/02/22-rdf-syntax-ns#"
   xmlns:svg="http://www.w3.org/2000/svg"
   xmlns="http://www.w3.org/2000/svg"
   xmlns:xlink="http://www.w3.org/1999/xlink"
   xmlns:sodipodi="http://sodipodi.sourceforge.net/DTD/sodipodi-0.dtd"
   xmlns:inkscape="http://www.inkscape.org/namespaces/inkscape"
   version="1.0"
   width="500"
   height="499.99997"
   viewBox="-0.811 -0.732 1708 1708"
   id="svg11310"
   xml:space="preserve"
   sodipodi:version="0.32"
   inkscape:version="0.46"
   sodipodi:docname="icon_exit.svg"
   inkscape:output_extension="org.inkscape.output.svg.inkscape"
   inkscape:export-filename="/home/elmar/projekte/ImageMetadataViewer/src/de/elmar_baumann/imv/resource/icon_exit.png"
   inkscape:export-xdpi="2.8800001"
   inkscape:export-ydpi="2.8800001"><metadata
   id="metadata52"><rdf:RDF><cc:Work
       rdf:about=""><dc:format>image/svg+xml</dc:format><dc:type
         rdf:resource="http://purl.org/dc/dcmitype/StillImage" /></cc:Work></rdf:RDF></metadata><sodipodi:namedview
   inkscape:window-height="964"
   inkscape:window-width="1280"
   inkscape:pageshadow="2"
   inkscape:pageopacity="0.0"
   guidetolerance="10.0"
   gridtolerance="10.0"
   objecttolerance="10.0"
   borderopacity="1.0"
   bordercolor="#666666"
   pagecolor="#ffffff"
   id="base"
   showgrid="false"
   inkscape:zoom="0.92400006"
   inkscape:cx="250"
   inkscape:cy="249.99998"
   inkscape:window-x="-4"
   inkscape:window-y="-4"
   inkscape:current-layer="svg11310" />
<defs
   id="defs11312"><inkscape:perspective
   sodipodi:type="inkscape:persp3d"
   inkscape:vp_x="0 : 249.99998 : 1"
   inkscape:vp_y="0 : 1000 : 0"
   inkscape:vp_z="500 : 249.99998 : 1"
   inkscape:persp3d-origin="250 : 166.66666 : 1"
   id="perspective54" /><linearGradient
   id="linearGradient19837"><stop
     style="stop-color: rgb(180, 0, 0); stop-opacity: 1;"
     offset="0"
     id="stop19839" /><stop
     style="stop-color: rgb(180, 0, 0); stop-opacity: 0;"
     offset="1"
     id="stop19841" /></linearGradient><linearGradient
   id="linearGradient14977"><stop
     style="stop-color: white; stop-opacity: 0.470588;"
     offset="0"
     id="stop14979" /><stop
     style="stop-color: white; stop-opacity: 0.705882;"
     offset="1"
     id="stop14981" /></linearGradient><linearGradient
   id="linearGradient14071"><stop
     style="stop-color: white; stop-opacity: 1;"
     offset="0"
     id="stop14073" /><stop
     style="stop-color: white; stop-opacity: 0;"
     offset="1"
     id="stop14075" /></linearGradient><linearGradient
   id="linearGradient14012"><stop
     style="stop-color: rgb(220, 0, 0); stop-opacity: 1;"
     offset="0"
     id="stop14014" /><stop
     style="stop-color:#e5734f;stop-opacity:1;"
     offset="1"
     id="stop14016" /></linearGradient><linearGradient
   id="linearGradient14004"><stop
     style="stop-color: white; stop-opacity: 1;"
     offset="0"
     id="stop14006" /><stop
     style="stop-color: white; stop-opacity: 0;"
     offset="1"
     id="stop14008" /></linearGradient>
<linearGradient
   x1="1531.1748"
   y1="-710.26196"
   x2="514.25446"
   y2="1775.3436"
   id="linearGradient14010"
   xlink:href="#linearGradient14004"
   gradientUnits="userSpaceOnUse"
   gradientTransform="matrix(0.995461,0,0,0.995461,3.8338,3.9129)" /><linearGradient
   x1="1026.7279"
   y1="1147.7113"
   x2="1703.623"
   y2="1703.6219"
   id="linearGradient14022"
   xlink:href="#linearGradient14012"
   gradientUnits="userSpaceOnUse"
   gradientTransform="matrix(0.995461,0,0,0.995461,3.8338,3.9129)" /><linearGradient
   x1="853.22852"
   y1="6994.7397"
   x2="853.22852"
   y2="-1149.4908"
   id="linearGradient14077"
   xlink:href="#linearGradient14071"
   gradientUnits="userSpaceOnUse" /><linearGradient
   x1="1678.5588"
   y1="288.91214"
   x2="1678.5588"
   y2="1417.6237"
   id="linearGradient19843"
   xlink:href="#linearGradient19837"
   gradientUnits="userSpaceOnUse" /><linearGradient
   inkscape:collect="always"
   xlink:href="#linearGradient19837"
   id="linearGradient3207"
   gradientUnits="userSpaceOnUse"
   x1="1678.5588"
   y1="288.91214"
   x2="1678.5588"
   y2="1417.6237"
   gradientTransform="translate(-5.21045e-5,4.61273e-5)" /><linearGradient
   inkscape:collect="always"
   xlink:href="#linearGradient14004"
   id="linearGradient3222"
   gradientUnits="userSpaceOnUse"
   gradientTransform="matrix(0.995461,0,0,0.995461,3.8337479,3.9129461)"
   x1="1531.1748"
   y1="-710.26196"
   x2="514.25446"
   y2="1775.3436" /><linearGradient
   inkscape:collect="always"
   xlink:href="#linearGradient14012"
   id="linearGradient3225"
   gradientUnits="userSpaceOnUse"
   gradientTransform="matrix(0.995461,0,0,0.995461,3.8337479,3.9129461)"
   x1="971.02051"
   y1="1066.0071"
   x2="1581.0668"
   y2="1614.4901" /><linearGradient
   inkscape:collect="always"
   xlink:href="#linearGradient14012"
   id="linearGradient3263"
   gradientUnits="userSpaceOnUse"
   gradientTransform="matrix(0.995461,0,0,0.995461,3.8337479,3.9129461)"
   x1="971.02051"
   y1="1066.0071"
   x2="1581.0668"
   y2="1614.4901" /><linearGradient
   inkscape:collect="always"
   xlink:href="#linearGradient14004"
   id="linearGradient3265"
   gradientUnits="userSpaceOnUse"
   gradientTransform="matrix(0.995461,0,0,0.995461,3.8337479,3.9129461)"
   x1="1531.1748"
   y1="-710.26196"
   x2="514.25446"
   y2="1775.3436" /><linearGradient
   inkscape:collect="always"
   xlink:href="#linearGradient19837"
   id="linearGradient3267"
   gradientUnits="userSpaceOnUse"
   gradientTransform="translate(-5.21045e-5,4.61273e-5)"
   x1="1678.5588"
   y1="288.91214"
   x2="1678.5588"
   y2="1417.6237" /><linearGradient
   inkscape:collect="always"
   xlink:href="#linearGradient19837"
   id="linearGradient3275"
   gradientUnits="userSpaceOnUse"
   gradientTransform="matrix(0.9350649,0,0,0.9350649,61.435284,64.486946)"
   x1="1678.5588"
   y1="288.91214"
   x2="1678.5588"
   y2="1417.6237" /><linearGradient
   inkscape:collect="always"
   xlink:href="#linearGradient14004"
   id="linearGradient3290"
   gradientUnits="userSpaceOnUse"
   gradientTransform="matrix(0.9308206,0,0,0.9308206,65.020136,68.145762)"
   x1="1531.1748"
   y1="-710.26196"
   x2="514.25446"
   y2="1775.3436" /><linearGradient
   inkscape:collect="always"
   xlink:href="#linearGradient14012"
   id="linearGradient3293"
   gradientUnits="userSpaceOnUse"
   gradientTransform="matrix(0.9308206,0,0,0.9308206,65.020136,68.145762)"
   x1="971.02051"
   y1="1066.0071"
   x2="1581.0668"
   y2="1614.4901" /><filter
   inkscape:collect="always"
   id="filter3324"><feGaussianBlur
     inkscape:collect="always"
     stdDeviation="32.981822"
     id="feGaussianBlur3326" /></filter></defs>
















<path
   d="M 1664.4504,348.30255 C 1664.4504,278.32443 1636.6515,211.21231 1587.1691,161.72992 C 1537.6867,112.24753 1470.5747,84.44858 1400.5965,84.44858 L 345.17699,84.44858 C 275.19794,84.44858 208.08582,112.24753 158.60343,161.72992 C 109.12197,211.21231 81.322096,278.32443 81.322096,348.30255 L 81.322096,1403.7211 C 81.322096,1473.7002 109.12104,1540.8123 158.60343,1590.2937 C 208.08582,1639.7762 275.19794,1667.5752 345.17699,1667.5752 L 1400.5956,1667.5752 C 1470.5747,1667.5752 1537.6859,1639.7762 1587.1682,1590.2937 C 1636.6506,1540.8123 1664.4495,1473.6993 1664.4495,1403.7211 L 1664.4495,348.30255 L 1664.4504,348.30255 z"
   style="fill:#000000;fill-opacity:0.50196081000000004;fill-rule:evenodd;display:inline;filter:url(#filter3324)"
   id="path3302" /><path
   id="path17680"
   style="fill:none;fill-opacity:0.07843137;stroke:#e83131;stroke-width:9.58254528;stroke-linecap:round;stroke-linejoin:round;stroke-miterlimit:100;stroke-dasharray:none;stroke-opacity:0.66666697"
   d="M 1386.9316,1653.912 C 1532.6542,1653.912 1650.7864,1535.7808 1650.7864,1390.0571" /><path
   id="path17682"
   style="fill:none;fill-opacity:0.07843137;stroke:#e83131;stroke-width:9.58254528;stroke-linecap:round;stroke-linejoin:round;stroke-miterlimit:100;stroke-dasharray:none;stroke-opacity:0.66666697"
   d="M 67.658096,1390.0571 C 67.658096,1535.7808 185.79032,1653.912 331.51299,1653.912" /><line
   stroke-miterlimit="500"
   x1="331.51303"
   y1="1653.9121"
   x2="1386.9318"
   y2="1653.9121"
   id="line17684"
   style="fill:none;fill-opacity:0.07843137;stroke:#e83131;stroke-width:9.58254528;stroke-linecap:round;stroke-linejoin:round;stroke-miterlimit:100;stroke-dasharray:none;stroke-opacity:0.66666697" /><line
   stroke-miterlimit="500"
   x1="67.658096"
   y1="334.63855"
   x2="67.658096"
   y2="1390.0571"
   id="line17690"
   style="fill:none;fill-opacity:0.07843137;stroke:#e83131;stroke-width:9.58254528;stroke-linecap:round;stroke-linejoin:round;stroke-miterlimit:100;stroke-dasharray:none;stroke-opacity:0.66666697" /><path
   id="path17692"
   style="fill:none;fill-opacity:0.07843137;stroke:#e83131;stroke-width:9.58254528;stroke-linecap:round;stroke-linejoin:round;stroke-miterlimit:100;stroke-dasharray:none;stroke-opacity:0.66666697"
   d="M 331.51299,70.783654 C 185.79032,70.783654 67.658096,188.91589 67.658096,334.63855" /><line
   stroke-miterlimit="500"
   x1="1386.9318"
   y1="70.783669"
   x2="331.51303"
   y2="70.783669"
   id="line17694"
   style="fill:none;fill-opacity:0.07843137;stroke:#e83131;stroke-width:9.58254528;stroke-linecap:round;stroke-linejoin:round;stroke-miterlimit:100;stroke-dasharray:none;stroke-opacity:0.66666697" /><line
   stroke-miterlimit="500"
   x1="1650.7867"
   y1="1390.0571"
   x2="1650.7867"
   y2="334.63855"
   id="line17700"
   style="fill:none;fill-opacity:0.07843137;stroke:#e83131;stroke-width:9.58254528;stroke-linecap:round;stroke-linejoin:round;stroke-miterlimit:100;stroke-dasharray:none;stroke-opacity:0.66666697" /><path
   id="path17668"
   style="fill:url(#linearGradient3293);fill-opacity:1;fill-rule:evenodd;display:inline"
   d="M 1650.7864,334.63855 C 1650.7864,264.66043 1622.9875,197.54831 1573.5051,148.06592 C 1524.0227,98.583526 1456.9107,70.78458 1386.9325,70.78458 L 331.51299,70.78458 C 261.53394,70.78458 194.42182,98.583526 144.93943,148.06592 C 95.457969,197.54831 67.658096,264.66043 67.658096,334.63855 L 67.658096,1390.0571 C 67.658096,1460.0362 95.457043,1527.1483 144.93943,1576.6297 C 194.42182,1626.1122 261.53394,1653.9112 331.51299,1653.9112 L 1386.9316,1653.9112 C 1456.9107,1653.9112 1524.0219,1626.1122 1573.5042,1576.6297 C 1622.9866,1527.1483 1650.7855,1460.0353 1650.7855,1390.0571 L 1650.7855,334.63855 L 1650.7864,334.63855 z" /><path
   id="path17670"
   style="fill:url(#linearGradient3290);fill-opacity:1;fill-rule:evenodd;display:inline"
   d="M 1650.7864,334.63855 C 1650.7864,188.91589 1532.6542,70.78458 1386.9316,70.78458 L 331.51299,70.78458 C 185.79032,70.783654 67.658096,188.91589 67.658096,334.63855 L 67.658096,1126.2023 C 701.27285,1176.0728 1310.5141,871.45265 1650.7864,334.63855 z" /><path
   id="path11342"
   style="fill:#ffffff;fill-opacity:0.25842698;fill-rule:evenodd"
   d="M 1386.9316,1627.5261 C 1518.7366,1617.7804 1627.2582,1520.1112 1650.7864,1390.0571 C 1650.7864,1535.7808 1532.6542,1653.912 1386.9316,1653.912 L 331.51299,1653.912 C 185.79032,1653.912 67.658096,1535.7808 67.658096,1390.0571 C 91.185507,1520.1112 199.70795,1617.7804 331.51299,1627.5261 L 1386.9316,1627.5261 z" /><path
   id="path11336"
   style="fill:none;stroke:#ff5555;stroke-width:13.96229553;stroke-linecap:round;stroke-linejoin:round;stroke-miterlimit:100;stroke-dasharray:none;stroke-opacity:1"
   d="M 1386.9316,1653.912 C 1532.6542,1653.912 1650.7864,1535.7808 1650.7864,1390.0571" /><path
   id="path11334"
   style="fill:none;stroke:#ff5555;stroke-width:13.96229553;stroke-linecap:round;stroke-linejoin:round;stroke-miterlimit:100;stroke-dasharray:none;stroke-opacity:1"
   d="M 67.658096,1390.0571 C 67.658096,1535.7808 185.79032,1653.912 331.51299,1653.912" /><line
   style="fill:none;stroke:#ff5555;stroke-width:13.96229553;stroke-linecap:round;stroke-linejoin:round;stroke-miterlimit:100;stroke-dasharray:none;stroke-opacity:1"
   id="line11326"
   y2="1653.9121"
   x2="1386.9318"
   y1="1653.9121"
   x1="331.51303"
   stroke-miterlimit="500" /><line
   style="fill:none;stroke:#ff5555;stroke-width:13.96229553;stroke-linecap:round;stroke-linejoin:round;stroke-miterlimit:100;stroke-dasharray:none;stroke-opacity:1"
   id="line11332"
   y2="1390.0571"
   x2="67.658096"
   y1="334.63855"
   x1="67.658096"
   stroke-miterlimit="500" /><path
   id="path11340"
   style="fill:none;stroke:#ff5555;stroke-width:13.96229553;stroke-linecap:round;stroke-linejoin:round;stroke-miterlimit:100;stroke-dasharray:none;stroke-opacity:1"
   d="M 331.51299,70.783654 C 185.79032,70.783654 67.658096,188.91589 67.658096,334.63855" /><line
   style="fill:none;stroke:#ff5555;stroke-width:13.96229553;stroke-linecap:round;stroke-linejoin:round;stroke-miterlimit:100;stroke-dasharray:none;stroke-opacity:1"
   id="line11330"
   y2="70.783669"
   x2="331.51303"
   y1="70.783669"
   x1="1386.9318"
   stroke-miterlimit="500" /><path
   id="path11338"
   style="fill:none;stroke:#ff5555;stroke-width:13.96229553;stroke-linecap:round;stroke-linejoin:round;stroke-miterlimit:100;stroke-dasharray:none;stroke-opacity:1"
   d="M 1650.7864,334.63855 C 1650.7864,188.91589 1532.6542,70.78458 1386.9316,70.78458" /><line
   style="fill:none;stroke:#ff5555;stroke-width:13.96229553;stroke-linecap:round;stroke-linejoin:round;stroke-miterlimit:100;stroke-dasharray:none;stroke-opacity:1"
   id="line11328"
   y2="334.63855"
   x2="1650.7867"
   y1="1390.0571"
   x1="1650.7867"
   stroke-miterlimit="500" /><path
   id="path17676"
   style="fill:#ffffff;fill-opacity:0.58823494;fill-rule:evenodd"
   d="M 1386.9316,1627.5261 C 1518.7366,1617.7804 1627.2582,1520.1112 1650.7864,1390.0571 C 1650.7864,1535.7808 1532.6542,1653.912 1386.9316,1653.912 L 331.51299,1653.912 C 185.79032,1653.912 67.658096,1535.7808 67.658096,1390.0571 C 91.185507,1520.1112 199.70795,1617.7804 331.51299,1627.5261 L 1386.9316,1627.5261 z" /><path
   id="path17696"
   style="fill:none;fill-opacity:0.07843137;stroke:#e83131;stroke-width:9.58254528;stroke-linecap:round;stroke-linejoin:round;stroke-miterlimit:100;stroke-dasharray:none;stroke-opacity:0.66666697"
   d="M 1650.7864,334.63855 C 1650.7864,188.91589 1532.6542,70.78458 1386.9316,70.78458" /><path
   id="path11324"
   style="fill:#b40000;fill-opacity:0.58823494;fill-rule:evenodd"
   d="M 67.658096,1390.0571 C 89.516548,1390.0571 107.23656,1153.7945 107.23656,862.34739 C 107.23656,570.90207 89.516548,334.63855 67.658096,334.63855 L 67.658096,1390.0571 L 67.658096,1390.0571 z" /><path
   id="path11322"
   style="fill:url(#linearGradient3275);fill-opacity:1;fill-rule:evenodd"
   d="M 1650.7864,1390.0571 C 1628.928,1390.0571 1611.207,1153.7945 1611.207,862.34739 C 1611.207,570.90207 1628.9271,334.63855 1650.7864,334.63855 L 1650.7864,1390.0571 z" /><path
   id="path14085"
   style="fill:#ffffff;fill-opacity:0.54901997;fill-rule:evenodd"
   d="M 1650.7864,334.63855 C 1606.8276,222.2169 1506.2608,141.76334 1386.9316,123.55557 L 331.51299,123.55557 C 212.18372,141.76334 111.617,222.21597 67.658096,334.63855 C 67.658096,188.91589 185.79032,70.78458 331.51299,70.78458 L 1386.9316,70.78458 C 1532.6542,70.783654 1650.7864,188.91589 1650.7864,334.63855 z" /><g
   id="g3200"
   transform="matrix(0.8750495,0,0,0.8750495,98.533627,111.55819)"><path
     d="M 660.85769,528.91849 C 436.39841,635.20677 340.62518,903.27963 446.94153,1127.6771 C 553.25788,1352.0746 821.40573,1447.8215 1045.865,1341.5344 C 1270.3242,1235.2461 1366.0975,967.17327 1259.7811,742.77577 C 1215.3196,648.93208 1139.7345,573.36894 1045.865,528.91968 C 1002.8312,508.54159 984.4682,457.1462 1004.8519,414.12314 C 1025.2356,371.10007 1076.6451,352.74321 1119.6812,373.1213 C 1430.2091,520.16458 1562.7062,891.03059 1415.6212,1201.473 C 1268.5374,1511.9154 897.57059,1644.376 587.04147,1497.3315 C 276.51475,1350.2895 144.0177,979.4235 291.10146,668.98105 C 352.6116,539.15344 457.17931,434.61451 587.04266,373.1213 C 630.07758,352.74321 681.48711,371.10007 701.87082,414.12314 C 722.25452,457.1462 703.89141,508.54159 660.85769,528.91849 z"
     style="fill:#ffffff;fill-opacity:1;fill-rule:evenodd;display:inline"
     id="path17672" /><path
     d="M 767.14184,791.79733 C 767.14184,850.9343 805.74312,898.87375 853.36195,898.87375 C 900.97963,898.87375 939.58205,850.9343 939.58205,791.79733 L 939.58205,256.41224 C 939.58205,197.27527 900.97963,149.33434 853.36195,149.33434 C 805.74431,149.33434 767.14184,197.27379 767.14184,256.41224 L 767.14184,791.79733 z"
     style="fill:#ffffff;fill-opacity:1;fill-rule:evenodd;display:inline"
     id="path17674" /><path
     d="M 1171.3508,1253.1283 C 995.7306,1428.7002 710.99213,1428.7002 535.3719,1253.1283 C 617.53531,1341.4258 732.73085,1391.5823 853.36076,1391.5823 C 973.99072,1391.5835 1089.1874,1341.4258 1171.3508,1253.1283 z M 587.04266,373.1213 C 522.59108,403.64015 463.86732,445.01164 413.44065,495.42563 C 467.9109,450.44572 527.08674,411.48778 589.93758,379.23032 C 615.45031,369.46162 644.03568,371.9348 667.48964,385.93914 C 690.9436,399.94349 706.67659,423.93119 710.17029,451.0193 C 710.17029,421.47232 695.0325,393.98354 670.05773,378.18333 C 645.08177,362.38312 613.75295,360.47279 587.04266,373.1213 z M 996.55363,451.0193 C 1000.0473,423.93119 1015.7779,399.94349 1039.233,385.93914 C 1062.6882,371.9348 1091.2723,369.46162 1116.7851,379.23032 C 1179.636,411.48778 1238.813,450.44572 1293.2832,495.42563 C 1242.8566,445.01164 1184.1328,403.64015 1119.6812,373.1213 C 1092.9697,360.47279 1061.6409,362.38432 1036.6661,378.18452 C 1011.6925,393.98473 996.55363,421.47232 996.55363,451.0193 z M 767.14184,235.53072 C 770.7405,190.59374 808.26827,155.95969 853.36195,155.95969 C 898.45563,155.95969 935.98336,190.59255 939.58205,235.53072 C 939.58205,187.92619 900.97963,149.33434 853.36195,149.33434 C 805.74312,149.33434 767.14184,187.925 767.14184,235.53072 z"
     style="fill:#000000;fill-opacity:0.50196078;fill-rule:evenodd;display:inline"
     id="path17678" /></g></svg>