<?xml version="1.0" encoding="UTF-8" standalone="no"?>
<!-- Created with Inkscape (http://www.inkscape.org/) -->

<svg
   xmlns:dc="http://purl.org/dc/elements/1.1/"
   xmlns:cc="http://creativecommons.org/ns#"
   xmlns:rdf="http://www.w3.org/1999/02/22-rdf-syntax-ns#"
   xmlns:svg="http://www.w3.org/2000/svg"
   xmlns="http://www.w3.org/2000/svg"
   xmlns:sodipodi="http://sodipodi.sourceforge.net/DTD/sodipodi-0.dtd"
   xmlns:inkscape="http://www.inkscape.org/namespaces/inkscape"
   width="16px"
   height="16px"
   viewBox="0 0 16 16"
   version="1.1"
   id="SVGRoot"
   inkscape:export-filename="icon_question.png"
   inkscape:export-xdpi="1536"
   inkscape:export-ydpi="1536"
   inkscape:version="0.92.2 5c3e80d, 2017-08-06"
   sodipodi:docname="icon_question.svg">
  <sodipodi:namedview
     id="base"
     pagecolor="#cccccc"
     bordercolor="#666666"
     borderopacity="1.0"
     inkscape:pageopacity="1"
     inkscape:pageshadow="2"
     inkscape:zoom="90.509668"
     inkscape:cx="6.5581651"
     inkscape:cy="8"
     inkscape:document-units="px"
     inkscape:current-layer="layer1"
     showgrid="true"
     inkscape:window-width="3840"
     inkscape:window-height="2119"
     inkscape:window-x="0"
     inkscape:window-y="0"
     inkscape:window-maximized="1"
     inkscape:grid-bbox="true">
    <inkscape:grid
       type="xygrid"
       id="grid4286" />
  </sodipodi:namedview>
  <defs
     id="defs3727" />
  <metadata
     id="metadata3730">
    <rdf:RDF>
      <cc:Work
         rdf:about="">
        <dc:format>image/svg+xml</dc:format>
        <dc:type
           rdf:resource="http://purl.org/dc/dcmitype/StillImage" />
        <dc:title />
      </cc:Work>
    </rdf:RDF>
  </metadata>
  <g
     id="layer1"
     inkscape:groupmode="layer"
     inkscape:label="Ebene 1">
    <g
       aria-label="?"
       style="font-style:normal;font-variant:normal;font-weight:bold;font-stretch:normal;font-size:16px;line-height:125%;font-family:'DejaVu Serif';-inkscape-font-specification:'DejaVu Serif Bold';letter-spacing:0px;word-spacing:0px;fill:#000000;fill-opacity:1;stroke:none;stroke-width:1px;stroke-linecap:butt;stroke-linejoin:miter;stroke-opacity:1"
       id="text4290">
      <path
         d="m 5.8242187,12.558594 q 0,-0.609375 0.4375,-1.046875 0.4375,-0.4375 1.046875,-0.4375 0.6171875,0 1.0546876,0.4375 0.4375,0.4375 0.4375,1.046875 0,0.617187 -0.4375,1.054687 -0.4375001,0.4375 -1.0546876,0.4375 -0.609375,0 -1.046875,-0.4375 -0.4375,-0.4375 -0.4375,-1.054687 z M 4.1914062,2.4804688 q 0.96875,-0.265625 1.84375,-0.3984375 0.875,-0.1328126 1.6953125,-0.1328126 1.9687501,0 3.0234373,0.8671876 1.054688,0.859375 1.054688,2.4609374 0,1.578125 -1.023438,2.4921875 Q 9.7695313,8.6757813 7.8554687,8.8164063 V 10.417969 H 6.7695312 V 8.0820313 q 1.09375,-0.3359376 1.6015626,-1.0546876 0.5078125,-0.71875 0.5078125,-1.921875 0,-1.1249999 -0.4765625,-1.6953124 -0.4765626,-0.578125 -1.4062501,-0.578125 -0.859375,0 -1.328125,0.515625 -0.4609375,0.515625 -0.53125,1.5312499 H 4.1914062 Z"
         style=""
         id="path4292" />
    </g>
    <rect
       style="fill:none;fill-opacity:1;fill-rule:nonzero;stroke:#000000;stroke-width:1;stroke-linecap:butt;stroke-miterlimit:4;stroke-dasharray:none;stroke-dashoffset:0;stroke-opacity:1"
       id="rect900"
       width="16"
       height="16"
       x="0"
       y="0" />
  </g>
</svg>
