<?xml version="1.0" encoding="UTF-8" standalone="no"?>
<!-- Created with Inkscape (http://www.inkscape.org/) -->
<svg
   xmlns:dc="http://purl.org/dc/elements/1.1/"
   xmlns:cc="http://creativecommons.org/ns#"
   xmlns:rdf="http://www.w3.org/1999/02/22-rdf-syntax-ns#"
   xmlns:svg="http://www.w3.org/2000/svg"
   xmlns="http://www.w3.org/2000/svg"
   xmlns:xlink="http://www.w3.org/1999/xlink"
   xmlns:sodipodi="http://sodipodi.sourceforge.net/DTD/sodipodi-0.dtd"
   xmlns:inkscape="http://www.inkscape.org/namespaces/inkscape"
   width="250"
   height="50"
   id="svg3141"
   sodipodi:version="0.32"
   inkscape:version="0.46"
   sodipodi:docbase="/home/elmar/projekte/JPhotoTagger/Support/res"
   sodipodi:docname="logo.svg"
   inkscape:output_extension="org.inkscape.output.svg.inkscape"
   inkscape:export-filename="/home/elmar/projekte/JPhotoTagger/Support/res/developers/website/css/logo.png"
   inkscape:export-xdpi="135"
   inkscape:export-ydpi="135"
   version="1.0">
  <defs
     id="defs3143">
    <inkscape:perspective
       sodipodi:type="inkscape:persp3d"
       inkscape:vp_x="0 : 16 : 1"
       inkscape:vp_y="0 : 1000 : 0"
       inkscape:vp_z="32 : 16 : 1"
       inkscape:persp3d-origin="16 : 10.666667 : 1"
       id="perspective22" />
    <linearGradient
       id="linearGradient4152">
      <stop
         style="stop-color:#54cf88;stop-opacity:1;"
         offset="0"
         id="stop4154" />
      <stop
         style="stop-color:#ffffff;stop-opacity:0;"
         offset="1"
         id="stop4156" />
    </linearGradient>
    <linearGradient
       inkscape:collect="always"
       xlink:href="#linearGradient4152"
       id="linearGradient4162"
       x1="15.181551"
       y1="-0.00027094511"
       x2="15.181551"
       y2="58.868385"
       gradientUnits="userSpaceOnUse" />
    <filter
       inkscape:collect="always"
       x="-0.22773723"
       width="1.4554745"
       y="-0.22773723"
       height="1.4554745"
       id="filter4216">
      <feGaussianBlur
         inkscape:collect="always"
         stdDeviation="3.0364964"
         id="feGaussianBlur4218" />
    </filter>
    <inkscape:perspective
       id="perspective2457"
       inkscape:persp3d-origin="46.794998 : 9.7005208 : 1"
       inkscape:vp_z="93.589996 : 14.550781 : 1"
       inkscape:vp_y="0 : 1000 : 0"
       inkscape:vp_x="0 : 14.550781 : 1"
       sodipodi:type="inkscape:persp3d" />
    <inkscape:perspective
       id="perspective2576"
       inkscape:persp3d-origin="46.794998 : 9.7005208 : 1"
       inkscape:vp_z="93.589996 : 14.550781 : 1"
       inkscape:vp_y="0 : 1000 : 0"
       inkscape:vp_x="0 : 14.550781 : 1"
       sodipodi:type="inkscape:persp3d" />
    <inkscape:perspective
       id="perspective2631"
       inkscape:persp3d-origin="46.794998 : 9.7005208 : 1"
       inkscape:vp_z="93.589996 : 14.550781 : 1"
       inkscape:vp_y="0 : 1000 : 0"
       inkscape:vp_x="0 : 14.550781 : 1"
       sodipodi:type="inkscape:persp3d" />
  </defs>
  <sodipodi:namedview
     id="base"
     pagecolor="#ffffff"
     bordercolor="#666666"
     borderopacity="1.0"
     inkscape:pageopacity="0.0"
     inkscape:pageshadow="2"
     inkscape:zoom="1.546"
     inkscape:cx="245.5641"
     inkscape:cy="25"
     inkscape:current-layer="layer6"
     showgrid="true"
     inkscape:grid-bbox="true"
     inkscape:document-units="px"
     inkscape:window-width="1270"
     inkscape:window-height="996"
     inkscape:window-x="0"
     inkscape:window-y="0" />
  <metadata
     id="metadata3146">
    <rdf:RDF>
      <cc:Work
         rdf:about="">
        <dc:format>image/svg+xml</dc:format>
        <dc:type
           rdf:resource="http://purl.org/dc/dcmitype/StillImage" />
      </cc:Work>
    </rdf:RDF>
  </metadata>
  <g
     inkscape:groupmode="layer"
     id="layer2"
     style="display:inline"
     inkscape:label="Background" />
  <g
     id="layer1"
     inkscape:label="Images"
     inkscape:groupmode="layer"
     style="display:inline" />
  <g
     inkscape:groupmode="layer"
     id="layer6"
     inkscape:label="XMP"
     style="display:inline">
    <g
       id="g2427"
       transform="scale(1.5625,1.5625)">
      <rect
         inkscape:export-ydpi="180"
         inkscape:export-xdpi="180"
         y="7.4940054e-16"
         x="0"
         height="32"
         width="32"
         id="rect4150"
         style="opacity:0.64598544;fill:url(#linearGradient4162);fill-opacity:1;stroke:none;stroke-width:1.05900002;stroke-linecap:square;stroke-miterlimit:4;stroke-dasharray:none;stroke-opacity:1;display:inline;filter:url(#filter4216)" />
      <rect
         transform="matrix(0.7071068,-0.7071068,0.7071068,0.7071068,0,0)"
         y="11.133847"
         x="-7.2880549"
         height="11.118292"
         width="15.122218"
         id="rect4120"
         style="opacity:0.98000004;fill:#ffffff;fill-opacity:1;stroke:#888888;stroke-width:1.05900002;stroke-linecap:square;stroke-miterlimit:4;stroke-dasharray:none;stroke-opacity:1;display:inline" />
      <rect
         transform="matrix(0.7071068,-0.7071068,0.7071068,0.7071068,0,0)"
         y="12.997539"
         x="-5.442677"
         height="7.0853777"
         width="11.446516"
         id="rect3149"
         style="opacity:0.98000004;fill:#aaaaaa;fill-opacity:1;stroke:none;stroke-width:1;stroke-linecap:square;stroke-miterlimit:4;stroke-dasharray:none;stroke-opacity:1;display:inline" />
      <rect
         y="8.3332291"
         x="14.152011"
         height="11.118292"
         width="15.122218"
         id="rect4139"
         style="opacity:0.98000004;fill:#ffffff;fill-opacity:1;stroke:#888888;stroke-width:1.05900002;stroke-linecap:square;stroke-miterlimit:4;stroke-dasharray:none;stroke-opacity:1;display:inline" />
      <rect
         y="10.19692"
         x="15.997389"
         height="7.0853777"
         width="11.446516"
         id="rect4141"
         style="opacity:0.98000004;fill:#aaaaaa;fill-opacity:1;stroke:none;stroke-width:1;stroke-linecap:square;stroke-miterlimit:4;stroke-dasharray:none;stroke-opacity:1;display:inline" />
      <rect
         y="15.5295"
         x="4.3482819"
         height="11.118292"
         width="15.122218"
         id="rect4145"
         style="opacity:0.98000004;fill:#ffffff;fill-opacity:1;stroke:#888888;stroke-width:1.05900002;stroke-linecap:square;stroke-miterlimit:4;stroke-dasharray:none;stroke-opacity:1;display:inline" />
      <rect
         y="17.39319"
         x="6.1936598"
         height="7.0853777"
         width="11.446516"
         id="rect4147"
         style="opacity:0.98000004;fill:#aaaaaa;fill-opacity:1;stroke:none;stroke-width:1.05900002;stroke-linecap:square;stroke-miterlimit:4;stroke-dasharray:none;stroke-opacity:1;display:inline" />
      <path
         style="font-size:40px;font-style:normal;font-variant:normal;font-weight:bold;font-stretch:normal;text-align:center;line-height:125%;writing-mode:lr-tb;text-anchor:middle;fill:#3b74a4;fill-opacity:1;stroke:none;stroke-width:1;stroke-linecap:square;stroke-miterlimit:4;stroke-dashoffset:0;stroke-opacity:1;font-family:Arial"
         d="M 2.2917608,22.382722 L 4.3691408,25.306442 L 6.5907833,25.27759 L 8.6585458,22.382722 L 6.6773408,22.382722 L 5.4847708,24.142725 L 4.3499058,22.382722 L 2.2917608,22.382722 z M 4.5041095,25.455676 L 4.4941683,25.479557 L 2.1955858,28.768742 L 4.1767908,28.768742 L 5.4847708,26.787537 L 6.7831333,28.768742 L 8.8508958,28.768742 L 6.5426958,25.479557 L 4.5041095,25.455676 z"
         id="text2221"
         sodipodi:nodetypes="ccccccccccccccccc" />
      <path
         style="font-size:44.01971054px;font-style:normal;font-variant:normal;font-weight:bold;font-stretch:normal;text-align:center;line-height:125%;writing-mode:lr-tb;text-anchor:middle;fill:#3b74a4;fill-opacity:1;stroke:none;stroke-width:1;stroke-linecap:square;stroke-miterlimit:4;stroke-dashoffset:0;stroke-opacity:1;font-family:Arial"
         d="M 14.842598,22.39234 C 13.910787,22.392346 13.103194,22.734566 12.428606,23.411795 L 12.428606,22.536602 L 10.543576,22.536602 L 10.543576,25.229502 L 12.620956,25.210267 C 12.646075,24.911319 12.689254,24.672534 12.755601,24.50819 C 12.867219,24.243716 13.041811,24.042549 13.294181,23.902287 C 13.546541,23.762038 13.834678,23.690709 14.150138,23.690702 C 14.412205,23.690709 14.615206,23.727575 14.765658,23.81573 C 14.920957,23.903894 15.039087,24.039339 15.111888,24.219665 C 15.17434,24.374379 15.208805,24.702233 15.217681,25.181415 L 17.295061,25.152562 C 17.322655,24.900507 17.367994,24.689902 17.429706,24.537042 C 17.541321,24.256535 17.725531,24.046556 17.977903,23.902287 C 18.23026,23.758034 18.499424,23.690709 18.785773,23.690702 C 19.178869,23.690709 19.471681,23.806116 19.660966,24.04655 C 19.789192,24.214511 19.861148,24.583147 19.872551,25.12371 L 21.921078,25.094857 L 21.921078,24.844803 C 21.921066,24.235699 21.850226,23.790087 21.709493,23.517587 C 21.515358,23.148922 21.217776,22.869214 20.824683,22.680865 C 20.431563,22.488524 19.949866,22.392346 19.382058,22.39234 C 18.935554,22.392346 18.515265,22.483711 18.122166,22.652012 C 17.729052,22.820323 17.365485,23.071179 17.025771,23.411795 C 16.792812,23.071179 16.495325,22.820323 16.131343,22.652012 C 15.767349,22.483711 15.337618,22.392346 14.842598,22.39234 z M 10.543576,25.575732 L 10.543576,28.922622 L 12.592103,28.922622 L 12.592103,25.825787 C 12.592103,25.754293 12.590652,25.690574 12.592103,25.62382 L 10.543576,25.575732 z M 15.217681,25.681525 L 15.217681,28.922622 L 17.266208,28.922622 L 17.266208,25.85464 C 17.266208,25.809233 17.265572,25.773167 17.266208,25.729612 L 15.217681,25.681525 z M 19.872551,25.796935 L 19.872551,28.922622 L 21.921078,28.922622 L 21.921078,25.845022 L 19.872551,25.796935 z"
         id="text3198" />
      <path
         style="font-size:43.35396576px;font-style:normal;font-variant:normal;font-weight:bold;font-stretch:normal;text-align:center;line-height:125%;writing-mode:lr-tb;text-anchor:middle;fill:#3b74a4;fill-opacity:1;stroke:none;stroke-width:1;stroke-linecap:square;stroke-miterlimit:4;stroke-dashoffset:0;stroke-opacity:1;font-family:Arial"
         d="M 27.874311,22.04611 C 27.375315,22.046116 26.918168,22.143895 26.508626,22.344252 C 26.099071,22.544623 25.777336,22.802695 25.537258,23.12327 L 25.537258,22.190372 L 23.681081,22.190372 L 23.681081,25.075622 L 27.191468,25.037152 L 25.719991,23.171357 L 27.855076,23.171357 L 29.951691,25.50841 L 27.778136,27.528085 L 25.671903,27.528085 L 27.114528,25.97005 L 23.681081,25.883492 L 23.681081,31.000002 L 25.671903,31.000002 L 25.671903,27.787757 C 26.043791,28.128377 26.395595,28.368818 26.729828,28.50907 C 27.068764,28.649325 27.440815,28.720655 27.855076,28.720655 C 28.725957,28.720655 29.474352,28.424916 30.086336,27.835845 C 30.698298,27.242767 30.999989,26.410855 30.999998,25.344912 C 30.999989,24.307029 30.693596,23.502366 30.086336,22.921302 C 29.479067,22.340249 28.745192,22.046116 27.874311,22.04611 z"
         id="path5095" />
    </g>
    <g
       id="layer3"
       inkscape:label="Pfeil"
       style="display:none"
       transform="matrix(0.30776,0,0,0.30776,-93.625484,-125.90779)">
      <path
         style="opacity:1;fill:#ffffff;fill-opacity:1;stroke:none;stroke-width:1;stroke-linecap:square;stroke-miterlimit:4;stroke-dasharray:none;stroke-dashoffset:0;stroke-opacity:1;display:inline"
         d="M 307.46518,491.47499 L 392.57053,490.46483 L 387.77231,484.40392 L 394.71711,484.40392 L 401.53564,491.98006 L 394.46458,498.54605 L 387.64604,498.54605 L 392.318,493.49529 L 307.46518,491.47499 z"
         id="path3207" />
    </g>
    <text
       xml:space="preserve"
       style="font-size:18px;font-style:normal;font-variant:normal;font-weight:bold;font-stretch:normal;text-indent:0;text-align:center;text-decoration:none;line-height:125%;letter-spacing:normal;word-spacing:normal;text-transform:none;direction:ltr;block-progression:tb;writing-mode:lr-tb;text-anchor:middle;opacity:1;fill:#000000;fill-opacity:1;fill-rule:nonzero;stroke:none;stroke-width:1;stroke-linecap:square;stroke-linejoin:miter;marker:none;marker-start:none;marker-mid:none;marker-end:none;stroke-miterlimit:4;stroke-dasharray:none;stroke-dashoffset:0;stroke-opacity:1;visibility:visible;display:inline;overflow:visible;enable-background:accumulate;font-family:Bitstream Vera Sans;-inkscape-font-specification:Bitstream Vera Sans Bold"
       x="132.04547"
       y="19.166296"
       id="text2439"
       sodipodi:linespacing="125%"><tspan
         sodipodi:role="line"
         id="tspan2441"
         x="132.04547"
         y="19.166296">JPhotoTagger</tspan></text>
    <text
       xml:space="preserve"
       style="font-size:10px;font-style:normal;font-variant:normal;font-weight:bold;font-stretch:normal;text-indent:0;text-align:center;text-decoration:none;line-height:125%;letter-spacing:normal;word-spacing:normal;text-transform:none;direction:ltr;block-progression:tb;writing-mode:lr-tb;text-anchor:middle;opacity:1;fill:#000000;fill-opacity:1;fill-rule:nonzero;stroke:none;stroke-width:1;stroke-linecap:square;stroke-linejoin:miter;marker:none;marker-start:none;marker-mid:none;marker-end:none;stroke-miterlimit:4;stroke-dasharray:none;stroke-dashoffset:0;stroke-opacity:1;visibility:visible;display:inline;overflow:visible;enable-background:accumulate;font-family:Bitstream Vera Sans;-inkscape-font-specification:Bitstream Vera Sans Bold"
       x="137.96442"
       y="36.838707"
       id="text2443"
       sodipodi:linespacing="125%"><tspan
         sodipodi:role="line"
         id="tspan2445"
         x="137.96442"
         y="36.838707">Tags and finds photos fast</tspan></text>
  </g>
</svg>
