<?xml version="1.0" encoding="UTF-8" standalone="no"?>
<!-- Created with Inkscape (http://www.inkscape.org/) -->
<svg
   xmlns:dc="http://purl.org/dc/elements/1.1/"
   xmlns:cc="http://creativecommons.org/ns#"
   xmlns:rdf="http://www.w3.org/1999/02/22-rdf-syntax-ns#"
   xmlns:svg="http://www.w3.org/2000/svg"
   xmlns="http://www.w3.org/2000/svg"
   xmlns:xlink="http://www.w3.org/1999/xlink"
   xmlns:sodipodi="http://sodipodi.sourceforge.net/DTD/sodipodi-0.dtd"
   xmlns:inkscape="http://www.inkscape.org/namespaces/inkscape"
   width="1500"
   height="75"
   id="svg3141"
   sodipodi:version="0.32"
   inkscape:version="0.46"
   sodipodi:docbase="/home/elmar/projekte/JPhotoTagger/Support/res"
   sodipodi:docname="logo.svg"
   inkscape:output_extension="org.inkscape.output.svg.inkscape"
   inkscape:export-filename="/home/elmar/projekte/JPhotoTagger/Website/css/logo.png"
   inkscape:export-xdpi="90"
   inkscape:export-ydpi="90"
   version="1.0">
  <defs
     id="defs3143">
    <inkscape:perspective
       sodipodi:type="inkscape:persp3d"
       inkscape:vp_x="0 : 16 : 1"
       inkscape:vp_y="0 : 1000 : 0"
       inkscape:vp_z="32 : 16 : 1"
       inkscape:persp3d-origin="16 : 10.666667 : 1"
       id="perspective22" />
    <linearGradient
       id="linearGradient4152">
      <stop
         style="stop-color:#54cf88;stop-opacity:1;"
         offset="0"
         id="stop4154" />
      <stop
         style="stop-color:#ffffff;stop-opacity:0;"
         offset="1"
         id="stop4156" />
    </linearGradient>
    <filter
       inkscape:collect="always"
       x="-0.22773723"
       width="1.4554745"
       y="-0.22773723"
       height="1.4554745"
       id="filter4216">
      <feGaussianBlur
         inkscape:collect="always"
         stdDeviation="3.0364964"
         id="feGaussianBlur4218" />
    </filter>
    <inkscape:perspective
       id="perspective2457"
       inkscape:persp3d-origin="46.794998 : 9.7005208 : 1"
       inkscape:vp_z="93.589996 : 14.550781 : 1"
       inkscape:vp_y="0 : 1000 : 0"
       inkscape:vp_x="0 : 14.550781 : 1"
       sodipodi:type="inkscape:persp3d" />
    <inkscape:perspective
       id="perspective2576"
       inkscape:persp3d-origin="46.794998 : 9.7005208 : 1"
       inkscape:vp_z="93.589996 : 14.550781 : 1"
       inkscape:vp_y="0 : 1000 : 0"
       inkscape:vp_x="0 : 14.550781 : 1"
       sodipodi:type="inkscape:persp3d" />
    <inkscape:perspective
       id="perspective2631"
       inkscape:persp3d-origin="46.794998 : 9.7005208 : 1"
       inkscape:vp_z="93.589996 : 14.550781 : 1"
       inkscape:vp_y="0 : 1000 : 0"
       inkscape:vp_x="0 : 14.550781 : 1"
       sodipodi:type="inkscape:persp3d" />
    <linearGradient
       inkscape:collect="always"
       xlink:href="#linearGradient4152"
       id="linearGradient3199"
       gradientUnits="userSpaceOnUse"
       x1="15.181551"
       y1="-96.314133"
       x2="15.181551"
       y2="108.83151" />
  </defs>
  <sodipodi:namedview
     id="base"
     pagecolor="#ffffff"
     bordercolor="#666666"
     borderopacity="1.0"
     inkscape:pageopacity="0.0"
     inkscape:pageshadow="2"
     inkscape:zoom="0.53133333"
     inkscape:cx="750"
     inkscape:cy="37.5"
     inkscape:current-layer="layer6"
     showgrid="true"
     inkscape:grid-bbox="true"
     inkscape:document-units="px"
     inkscape:window-width="1270"
     inkscape:window-height="996"
     inkscape:window-x="0"
     inkscape:window-y="0" />
  <metadata
     id="metadata3146">
    <rdf:RDF>
      <cc:Work
         rdf:about="">
        <dc:format>image/svg+xml</dc:format>
        <dc:type
           rdf:resource="http://purl.org/dc/dcmitype/StillImage" />
      </cc:Work>
    </rdf:RDF>
  </metadata>
  <g
     inkscape:groupmode="layer"
     id="layer2"
     style="display:inline"
     inkscape:label="Background" />
  <g
     id="layer1"
     inkscape:label="Images"
     inkscape:groupmode="layer"
     style="display:inline" />
  <g
     inkscape:groupmode="layer"
     id="layer6"
     inkscape:label="XMP"
     style="display:inline">
    <rect
       style="opacity:0.64598544000000002;fill:url(#linearGradient3199);fill-opacity:1;stroke:none;stroke-width:1.05900002000000004;stroke-linecap:square;stroke-miterlimit:4;stroke-dasharray:none;stroke-opacity:1;display:inline;filter:url(#filter4216)"
       id="rect4150"
       width="32"
       height="32"
       x="0"
       y="7.4940054e-16"
       inkscape:export-xdpi="180"
       inkscape:export-ydpi="180"
       transform="scale(70.3125,2.34375)" />
    <g
       id="g3221"
       transform="matrix(1.5,0,0,1.5,-1.7108483,-0.941872)">
      <rect
         transform="matrix(0.7071068,-0.7071068,0.7071068,0.7071068,0,0)"
         y="17.396637"
         x="-11.387587"
         height="17.372332"
         width="23.628468"
         id="rect4120"
         style="opacity:0.98000004;fill:#ffffff;fill-opacity:1;stroke:#888888;stroke-width:1.65468764;stroke-linecap:square;stroke-miterlimit:4;stroke-dasharray:none;stroke-opacity:1;display:inline" />
      <rect
         transform="matrix(0.7071068,-0.7071068,0.7071068,0.7071068,0,0)"
         y="20.308655"
         x="-8.5041828"
         height="11.070903"
         width="17.885181"
         id="rect3149"
         style="opacity:0.98000004;fill:#aaaaaa;fill-opacity:1;stroke:none;stroke-width:1;stroke-linecap:square;stroke-miterlimit:4;stroke-dasharray:none;stroke-opacity:1;display:inline" />
      <rect
         y="13.02067"
         x="22.112516"
         height="17.372332"
         width="23.628466"
         id="rect4139"
         style="opacity:0.98000004;fill:#ffffff;fill-opacity:1;stroke:#888888;stroke-width:1.65468752;stroke-linecap:square;stroke-miterlimit:4;stroke-dasharray:none;stroke-opacity:1;display:inline" />
      <rect
         y="15.932688"
         x="24.99592"
         height="11.070903"
         width="17.885181"
         id="rect4141"
         style="opacity:0.98000004;fill:#aaaaaa;fill-opacity:1;stroke:none;stroke-width:1;stroke-linecap:square;stroke-miterlimit:4;stroke-dasharray:none;stroke-opacity:1;display:inline" />
      <rect
         y="24.264843"
         x="6.7941904"
         height="17.372332"
         width="23.628466"
         id="rect4145"
         style="opacity:0.98000004;fill:#ffffff;fill-opacity:1;stroke:#888888;stroke-width:1.65468752;stroke-linecap:square;stroke-miterlimit:4;stroke-dasharray:none;stroke-opacity:1;display:inline" />
      <rect
         y="27.176861"
         x="9.6775932"
         height="11.070903"
         width="17.885181"
         id="rect4147"
         style="opacity:0.98000004;fill:#aaaaaa;fill-opacity:1;stroke:none;stroke-width:1.05900002;stroke-linecap:square;stroke-miterlimit:4;stroke-dasharray:none;stroke-opacity:1;display:inline" />
      <path
         style="font-size:40px;font-style:normal;font-variant:normal;font-weight:bold;font-stretch:normal;text-align:center;line-height:125%;writing-mode:lr-tb;text-anchor:middle;fill:#3b74a4;fill-opacity:1;stroke:none;stroke-width:1;stroke-linecap:square;stroke-miterlimit:4;stroke-dashoffset:0;stroke-opacity:1;font-family:Arial"
         d="M 3.5808763,34.973003 L 6.8267825,39.541316 L 10.298099,39.496234 L 13.528978,34.973003 L 10.433345,34.973003 L 8.5699544,37.723008 L 6.7967278,34.973003 L 3.5808763,34.973003 z M 7.0376711,39.774494 L 7.022138,39.811808 L 3.4306028,44.951159 L 6.5262356,44.951159 L 8.5699544,41.855527 L 10.598646,44.951159 L 13.829525,44.951159 L 10.222962,39.811808 L 7.0376711,39.774494 z"
         id="text2221"
         sodipodi:nodetypes="ccccccccccccccccc" />
      <path
         style="font-size:44.01971054px;font-style:normal;font-variant:normal;font-weight:bold;font-stretch:normal;text-align:center;line-height:125%;writing-mode:lr-tb;text-anchor:middle;fill:#3b74a4;fill-opacity:1;stroke:none;stroke-width:1;stroke-linecap:square;stroke-miterlimit:4;stroke-dashoffset:0;stroke-opacity:1;font-family:Arial"
         d="M 23.191559,34.988031 C 21.735605,34.988041 20.473741,35.522759 19.419697,36.58093 L 19.419697,35.213441 L 16.474338,35.213441 L 16.474338,39.421097 L 19.720244,39.391042 C 19.759492,38.923936 19.826959,38.550834 19.930627,38.294047 C 20.10503,37.880806 20.37783,37.566483 20.772158,37.347323 C 21.16647,37.128184 21.616684,37.016733 22.109591,37.016722 C 22.51907,37.016733 22.836259,37.074336 23.071341,37.212078 C 23.313995,37.349834 23.498573,37.561467 23.612325,37.843227 C 23.709906,38.084967 23.763758,38.597239 23.777627,39.345961 L 27.023533,39.300878 C 27.066648,38.907042 27.137491,38.577972 27.233916,38.339128 C 27.408314,37.900836 27.696142,37.572744 28.090473,37.347323 C 28.484781,37.121928 28.90535,37.016733 29.35277,37.016722 C 29.966983,37.016733 30.424502,37.197056 30.720259,37.572734 C 30.920612,37.835173 31.033044,38.411167 31.050861,39.255797 L 34.251684,39.210714 L 34.251684,38.820005 C 34.251666,37.86828 34.140978,37.172011 33.921083,36.74623 C 33.617747,36.170191 33.152775,35.733147 32.538567,35.438852 C 31.924317,35.138319 31.171666,34.988041 30.284466,34.988031 C 29.586803,34.988041 28.930102,35.130798 28.315884,35.393769 C 27.701644,35.656755 27.13357,36.048717 26.602767,36.58093 C 26.238769,36.048717 25.773945,35.656755 25.205223,35.393769 C 24.636483,35.130798 23.965028,34.988041 23.191559,34.988031 z M 16.474338,39.962081 L 16.474338,45.191597 L 19.675161,45.191597 L 19.675161,40.352792 C 19.675161,40.241083 19.672894,40.141522 19.675161,40.037219 L 16.474338,39.962081 z M 23.777627,40.127383 L 23.777627,45.191597 L 26.97845,45.191597 L 26.97845,40.397875 C 26.97845,40.326927 26.977456,40.270573 26.97845,40.202519 L 23.777627,40.127383 z M 31.050861,40.307711 L 31.050861,45.191597 L 34.251684,45.191597 L 34.251684,40.382847 L 31.050861,40.307711 z"
         id="text3198" />
      <path
         style="font-size:43.35396576px;font-style:normal;font-variant:normal;font-weight:bold;font-stretch:normal;text-align:center;line-height:125%;writing-mode:lr-tb;text-anchor:middle;fill:#3b74a4;fill-opacity:1;stroke:none;stroke-width:1;stroke-linecap:square;stroke-miterlimit:4;stroke-dashoffset:0;stroke-opacity:1;font-family:Arial"
         d="M 43.553611,34.447047 C 42.77393,34.447056 42.059638,34.599836 41.419728,34.912894 C 40.779798,35.225973 40.277088,35.629211 39.901966,36.130109 L 39.901966,34.672456 L 37.001689,34.672456 L 37.001689,39.180659 L 42.486669,39.12055 L 40.187486,36.205245 L 43.523556,36.205245 L 46.799517,39.856891 L 43.403337,43.012633 L 40.112348,43.012633 L 42.36645,40.578203 L 37.001689,40.442956 L 37.001689,48.437503 L 40.112348,48.437503 L 40.112348,43.41837 C 40.693423,43.950589 41.243117,44.326278 41.765356,44.545422 C 42.294944,44.76457 42.876273,44.876023 43.523556,44.876023 C 44.884308,44.876023 46.053675,44.413931 47.0099,43.493508 C 47.966091,42.566823 48.437483,41.266961 48.437497,39.601425 C 48.437483,37.979733 47.958744,36.722447 47.0099,35.814534 C 46.061042,34.906639 44.914362,34.447056 43.553611,34.447047 z"
         id="path5095" />
    </g>
    <g
       id="layer3"
       inkscape:label="Pfeil"
       style="display:none"
       transform="matrix(0.30776,0,0,0.30776,-93.625484,-125.90779)">
      <path
         style="opacity:1;fill:#ffffff;fill-opacity:1;stroke:none;stroke-width:1;stroke-linecap:square;stroke-miterlimit:4;stroke-dasharray:none;stroke-dashoffset:0;stroke-opacity:1;display:inline"
         d="M 307.46518,491.47499 L 392.57053,490.46483 L 387.77231,484.40392 L 394.71711,484.40392 L 401.53564,491.98006 L 394.46458,498.54605 L 387.64604,498.54605 L 392.318,493.49529 L 307.46518,491.47499 z"
         id="path3207" />
    </g>
    <g
       id="g3232"
       transform="translate(0,28.353183)">
      <text
         sodipodi:linespacing="125%"
         id="text2439"
         y="4.5306926"
         x="196.35736"
         style="font-size:27px;font-style:normal;font-variant:normal;font-weight:bold;font-stretch:normal;text-indent:0;text-align:center;text-decoration:none;line-height:125%;letter-spacing:normal;word-spacing:normal;text-transform:none;direction:ltr;block-progression:tb;writing-mode:lr-tb;text-anchor:middle;opacity:1;fill:#4c6656;fill-opacity:1;fill-rule:nonzero;stroke:none;stroke-width:1;stroke-linecap:square;stroke-linejoin:miter;marker:none;marker-start:none;marker-mid:none;marker-end:none;stroke-miterlimit:4;stroke-dasharray:none;stroke-dashoffset:0;stroke-opacity:1;visibility:visible;display:inline;overflow:visible;enable-background:accumulate;font-family:Bitstream Vera Sans;-inkscape-font-specification:Bitstream Vera Sans Bold"
         xml:space="preserve"><tspan
           y="4.5306926"
           x="196.35736"
           id="tspan2441"
           sodipodi:role="line">JPhotoTagger</tspan></text>
      <text
         sodipodi:linespacing="125%"
         id="text2443"
         y="31.039309"
         x="205.23578"
         style="font-size:15px;font-style:normal;font-variant:normal;font-weight:bold;font-stretch:normal;text-indent:0;text-align:center;text-decoration:none;line-height:125%;letter-spacing:normal;word-spacing:normal;text-transform:none;direction:ltr;block-progression:tb;writing-mode:lr-tb;text-anchor:middle;opacity:1;fill:#4c6656;fill-opacity:1;fill-rule:nonzero;stroke:none;stroke-width:1;stroke-linecap:square;stroke-linejoin:miter;marker:none;marker-start:none;marker-mid:none;marker-end:none;stroke-miterlimit:4;stroke-dasharray:none;stroke-dashoffset:0;stroke-opacity:1;visibility:visible;display:inline;overflow:visible;enable-background:accumulate;font-family:Bitstream Vera Sans;-inkscape-font-specification:Bitstream Vera Sans Bold"
         xml:space="preserve"><tspan
           y="31.039309"
           x="205.23578"
           id="tspan2445"
           sodipodi:role="line">Tags and finds photos fast</tspan></text>
    </g>
  </g>
</svg>
